<svg width="29" height="30" viewBox="0 0 29 30" fill="none" xmlns="http://www.w3.org/2000/svg">
<path d="M3.4 0C1.53033 0 0 1.57534 0 3.5V25.9C0 27.8247 1.53033 29.4 3.4 29.4H25.16C27.0297 29.4 28.56 27.8247 28.56 25.9V3.5C28.56 1.57534 27.0297 0 25.16 0H3.4ZM3.4 1.4H25.16C26.2946 1.4 27.2 2.33206 27.2 3.5V25.9C27.2 27.0679 26.2946 28 25.16 28H3.4C2.26543 28 1.36 27.0679 1.36 25.9V3.5C1.36 2.33206 2.26543 1.4 3.4 1.4ZM6.8 4.9082C6.05525 4.9082 5.38507 5.13736 4.88883 5.56719C4.39259 5.99702 4.08797 6.63916 4.08797 7.32676C4.08797 8.63378 5.18927 9.65273 6.59016 9.75352L6.59281 9.75488C6.65956 9.7783 6.72948 9.79076 6.8 9.7918C8.34565 9.7918 9.51203 8.67726 9.51203 7.32676C9.51191 7.31444 9.51147 7.30213 9.5107 7.28984C9.44151 5.95968 8.2895 4.9082 6.8 4.9082ZM6.8 6.2918C7.74672 6.2918 8.12054 6.72703 8.16133 7.34453C8.15307 7.9439 7.79286 8.4082 6.8 8.4082C5.85792 8.4082 5.43203 7.91156 5.43203 7.32676C5.43203 7.03436 5.53568 6.81401 5.75344 6.62539C5.9712 6.43677 6.32075 6.2918 6.8 6.2918ZM4.76 10.5C4.57966 10.5 4.40671 10.5738 4.27919 10.705C4.15167 10.8363 4.08002 11.0144 4.08 11.2V24.5C4.08002 24.6856 4.15167 24.8637 4.27919 24.995C4.40671 25.1262 4.57966 25.2 4.76 25.2H8.84C9.02034 25.2 9.19329 25.1262 9.32081 24.995C9.44833 24.8637 9.51998 24.6856 9.52 24.5V20.3943V11.2C9.51998 11.0144 9.44833 10.8363 9.32081 10.705C9.19329 10.5738 9.02034 10.5 8.84 10.5H4.76ZM10.88 10.5C10.6997 10.5 10.5267 10.5738 10.3992 10.705C10.2717 10.8363 10.2 11.0144 10.2 11.2V24.5C10.2 24.6856 10.2717 24.8637 10.3992 24.995C10.5267 25.1262 10.6997 25.2 10.88 25.2H14.96C15.1403 25.2 15.3133 25.1262 15.4408 24.995C15.5683 24.8637 15.64 24.6856 15.64 24.5V17.5C15.64 16.9192 15.7939 16.3415 16.065 15.9633C16.3361 15.585 16.678 15.358 17.328 15.3699C17.9984 15.3818 18.3532 15.6182 18.6216 15.9893C18.8901 16.3603 19.04 16.9167 19.04 17.5V24.5C19.04 24.6856 19.1117 24.8637 19.2392 24.995C19.3667 25.1262 19.5397 25.2 19.72 25.2H23.8C23.9803 25.2 24.1533 25.1262 24.2808 24.995C24.4083 24.8637 24.48 24.6856 24.48 24.5V16.9832C24.48 14.9101 23.8835 13.268 22.861 12.157C21.8385 11.046 20.4164 10.5 18.9125 10.5C17.4831 10.5 16.3954 10.9934 15.64 11.4967V11.2C15.64 11.0144 15.5683 10.8363 15.4408 10.705C15.3133 10.5738 15.1403 10.5 14.96 10.5H10.88ZM5.44 11.9H8.16V20.3943V23.8H5.44V11.9ZM11.56 11.9H14.28V12.9924C14.28 13.1392 14.3249 13.2822 14.4082 13.4013C14.4916 13.5204 14.6092 13.6096 14.7444 13.6561C14.8796 13.7027 15.0256 13.7043 15.1618 13.6607C15.298 13.6172 15.4174 13.5307 15.5032 13.4135C15.5032 13.4135 16.5711 11.9 18.9125 11.9C20.1048 11.9 21.1272 12.3078 21.8742 13.1195C22.6213 13.9313 23.12 15.1818 23.12 16.9832V23.8H20.4V17.5C20.4 16.6833 20.2099 15.839 19.7134 15.1525C19.2168 14.4661 18.3816 13.9882 17.352 13.9699C16.317 13.951 15.4683 14.4389 14.9706 15.1334C14.4729 15.8279 14.28 16.6808 14.28 17.5V23.8H11.56V11.9Z" fill="white"/>
</svg>
