<svg width="36" height="29" viewBox="0 0 36 29" fill="none" xmlns="http://www.w3.org/2000/svg">
<path d="M23.9588 0C19.7724 0 16.3681 3.4043 16.3681 7.59062C16.3681 7.84219 16.431 8.08828 16.4556 8.33437C11.2795 7.83945 6.70213 5.3457 3.59314 1.53125C3.44822 1.34805 3.224 1.24961 2.98884 1.26602C2.75642 1.28242 2.54861 1.41641 2.43377 1.61875C1.78025 2.74258 1.40564 4.03594 1.40564 5.425C1.40564 7.10664 2.0072 8.64609 2.93689 9.90938C2.75642 9.83008 2.55955 9.78633 2.39002 9.69063C2.174 9.57578 1.91424 9.58125 1.70369 9.70703C1.49314 9.83281 1.36463 10.0598 1.36189 10.3031V10.3906C1.36189 12.9691 2.69627 15.2086 4.66502 16.5812C4.64314 16.5785 4.62127 16.5867 4.59939 16.5812C4.35877 16.5402 4.11541 16.625 3.95408 16.8082C3.79275 16.9914 3.7408 17.2457 3.81189 17.4781C4.59392 19.909 6.59002 21.7656 9.06189 22.4438C7.09314 23.6141 4.80994 24.3031 2.34627 24.3031C1.81306 24.3031 1.30174 24.2758 0.793141 24.2156C0.465016 24.1719 0.150563 24.3633 0.0411882 24.675C-0.0709212 24.9867 0.0521257 25.334 0.333766 25.5063C3.49197 27.5324 7.2408 28.7219 11.2713 28.7219C17.8037 28.7219 22.9279 25.993 26.365 22.0938C29.8021 18.1945 31.5931 13.1305 31.5931 8.4C31.5931 8.20039 31.5767 8.00625 31.5713 7.80937C32.8537 6.82773 33.9994 5.67656 34.8963 4.33125C35.074 4.07148 35.0549 3.72422 34.8498 3.48359C34.6474 3.24297 34.3056 3.16914 34.0213 3.30312C33.6603 3.46445 33.2392 3.48086 32.8619 3.60938C33.3595 2.94492 33.7861 2.22852 34.0431 1.42188C34.1306 1.1457 34.0349 0.842187 33.808 0.661719C33.581 0.483984 33.2638 0.462109 33.015 0.6125C31.8201 1.3207 30.4967 1.81836 29.0994 2.12188C27.7431 0.853125 25.9576 0 23.9588 0ZM23.9588 1.4C25.7443 1.4 27.3576 2.16289 28.4869 3.36875C28.6564 3.54375 28.9053 3.61758 29.1431 3.56562C30.0564 3.38516 30.9232 3.11992 31.7681 2.77813C31.2814 3.43438 30.6799 3.99492 29.9744 4.41875C29.6545 4.57461 29.5041 4.94375 29.6217 5.28008C29.7365 5.61367 30.0865 5.80781 30.4338 5.73125C31.1338 5.64648 31.7572 5.36211 32.4244 5.18437C31.8256 5.83242 31.1693 6.41758 30.4556 6.93437C30.2615 7.07656 30.1549 7.30625 30.1713 7.54688C30.1822 7.83125 30.1931 8.11289 30.1931 8.4C30.1931 12.775 28.5142 17.5246 25.315 21.1531C22.1158 24.7816 17.4181 27.3219 11.2713 27.3219C8.47947 27.3219 5.84353 26.7039 3.46189 25.6156C6.41502 25.3887 9.13845 24.3441 11.3369 22.6187C11.5666 22.4355 11.6568 22.1293 11.5638 21.8504C11.4709 21.5715 11.2138 21.3801 10.9213 21.3719C8.61345 21.3309 6.68025 19.9883 5.64939 18.0906C5.68767 18.0906 5.72049 18.0906 5.75877 18.0906C6.45056 18.0906 7.13416 18.0031 7.77127 17.8281C8.07752 17.7379 8.28806 17.4535 8.27713 17.1336C8.26619 16.8137 8.03924 16.5402 7.72752 16.4719C5.2365 15.9688 3.36892 13.9398 2.93689 11.4187C3.64236 11.6621 4.36424 11.8535 5.14627 11.8781C5.46619 11.8973 5.75603 11.6977 5.85447 11.3941C5.95291 11.0906 5.83259 10.757 5.56189 10.5875C3.89939 9.47461 2.80564 7.57969 2.80564 5.425C2.80564 4.62656 3.01345 3.89375 3.28689 3.19375C6.78689 7.03555 11.6869 9.58672 17.2213 9.86562C17.44 9.87656 17.6533 9.78633 17.7955 9.61953C17.9377 9.45 17.9924 9.22578 17.9431 9.0125C17.8365 8.55859 17.7681 8.07734 17.7681 7.59062C17.7681 4.16172 20.5299 1.4 23.9588 1.4Z" fill="white"/>
</svg>
